# xmcd
#
# Track frame offsets: 
#        150
#        14568
#        28459
#        43303
#        57602
#        71826
#        86430
#        100788
#        114509
#        131717
#        146587
#        171825
#        186648
#        203251
#        216949
#        232186
#        249257
#        266518
#        278541
#        294928
#
# Disc length: 4145 seconds
#
# Revision: 0
# Processed by: cddbd v1.5.2PL0 Copyright (c) Steve Scherf et al.
# Submitted via: ExactAudioCopy v1.0b3
#
DISCID=37102f14
DTITLE=Various Artist - Disco Bass Vol. 1 - CD 2
DYEAR=1900
DGENRE=
TTITLE0=89ers - Ritmo Forte (89ers Classico Cut)
TTITLE1=Azuria - Forgive Me (C7 Meets Ozi Radio Cut)
TTITLE2=Deep.Spirit - The One That I Want (Chris Cute Radio Mix)
TTITLE3=Junkfood Junkies - Everybody (De Franco Radio Mix)
TTITLE4=Ozi Meets Tom Mountain - Dreams (Will Come Alive) (Radio Mix)
TTITLE5=D-Tune - Burn It Up (Extended Mix Edit)
TTITLE6=Drop Kickz - Clap It! (Club Cut)
TTITLE7=Issue Feat. Lynn - Take My Hand (Radio Mix)
TTITLE8=2 Vibez - Move Alone (Radio Edit)
TTITLE9=Pitchers - Back Once Again (Original Cut)
TTITLE10=4 Clubbers - Let Me Be Your Fantasy (Extended)
TTITLE11=Tunebazz - Party With You (Radio Edit)
TTITLE12=Numa Feat. Christi - A Long Way (Radio Edit)
TTITLE13=Triple Bounce - Magic Melody (Accuface Radio Edit)
TTITLE14=Mario Lopez - Lonely (Without You) (Original Radio Cut)
TTITLE15=Roland Kenzo - Never Stop
TTITLE16=Megara Vs. DJ Lee - For A Moment (Backslash Vs. Mikkas Cut)
TTITLE17=Sun-Port - Meet The Fallen Angel (Club Cut)
TTITLE18=Airbeat One Project - Airbeat One (Radio Edit)
TTITLE19=200 Degrees - The Darkness
EXTD=
EXTT0=
EXTT1=
EXTT2=
EXTT3=
EXTT4=
EXTT5=
EXTT6=
EXTT7=
EXTT8=
EXTT9=
EXTT10=
EXTT11=
EXTT12=
EXTT13=
EXTT14=
EXTT15=
EXTT16=
EXTT17=
EXTT18=
EXTT19=
PLAYORDER=
